# File produced by Open Asset Import Library (http://www.assimp.sf.net)
# (assimp v5.0.1141745658)

mtllib test_out.mtl

# 8 vertex positions and colors
v  0 0 0 0.48627001 0.43136999 0.47059
v  1 1 0 0.30588001 0.039220002 0.19608
v  1 0 0 0.094120003 0.78430998 0.09804
v  0 1 0 0.015690001 0 0.17254999
v  0 1 1 0.87843001 0 0.039220002
v  0 0 1 0.094120003 0 0.47451001
v  1 1 1 0.0902 0 0.78430998
v  1 0 1 0.48627001 0.039220002 0.21961001

# 0 UV coordinates

# 6 vertex normals
vn 0 0 -1
vn -1 0 0
vn 0 1 0
vn 1 0 0
vn 0 -1 0
vn 0 0 1

# Mesh 'cube' with 12 faces
g cube
usemtl DefaultMaterial
f  1//1 2//1 3//1
f  1//1 4//1 2//1
f  1//2 5//2 4//2
f  1//2 6//2 5//2
f  4//3 7//3 2//3
f  4//3 5//3 7//3
f  3//4 2//4 7//4
f  3//4 7//4 8//4
f  1//5 3//5 8//5
f  1//5 8//5 6//5
f  6//6 8//6 7//6
f  6//6 7//6 5//6

